#!OML:ASF E:\Steps\Project 1\Capture day 1\Session 2\Subject.ASF
:FULLY-SPECIFIED
:DEGREES
203
root 9.67707 15.9626 9.91705 -146.185 -2.0138 179.097
lowerback -20.7931 -1.5909 -6.37268
upperback -3.17844 -1.22722 -0.911612
thorax 8.24346 -1.03247 2.26397
lowerneck -6.50952 7.72499 -0.787712
upperneck 9.88517 4.69564 28.174
head 3.29333 2.41502 9.25643
rclavicle -3.97569e-016 -2.22639e-014
rhumerus -35.7385 -6.66703 -84.7585
rradius 45.3091
rwrist -7.45227
rhand -6.01564 -55.9868
rfingers 7.12502
rthumb 19.8173 -444.996
lclavicle -3.97569e-016 -2.22639e-014
lhumerus -32.7805 2.40721 79.9101
lradius 28.5344
lwrist -3.04172
lhand -21.0649 -12.3021
lfingers 7.12502
lthumb 5.31165 17.6114
rfemur -46.0672 6.06049 19.0822
rtibia 34.3678
rfoot -30.1725 -5.44281
rtoes -27.5101
lfemur -49.8299 -10.5917 -14.7706
ltibia 37.8586
lfoot -17.64 2.94182
ltoes -40.5271
204
root 9.69283 15.8984 9.96703 -145.784 -2.50908 178.786
lowerback -20.297 -1.76196 -6.64552
upperback -3.19227 -1.42045 -0.919593
thorax 7.98377 -1.12098 2.36833
lowerneck -6.58917 7.96142 -0.257495
upperneck 10.0185 4.95563 27.8604
head 3.3398 2.56985 9.06536
rclavicle -6.36111e-015 -7.15625e-015
rhumerus -35.3214 -6.10115 -85.025
rradius 45.7101
rwrist -7.47146
rhand -5.75602 -55.8482
rfingers 7.12502
rthumb 20.0669 -444.832
lclavicle -6.36111e-015 -7.15625e-015
lhumerus -32.5135 2.1178 80.0103
lradius 28.8471
lwrist -2.69918
lhand -21.0831 -12.392
lfingers 7.12502
lthumb 5.29407 17.5219
rfemur -47.7428 5.63227 19.0043
rtibia 36.5898
rfoot -31.2625 -5.89063
rtoes -27.7888
lfemur -51.7332 -10.5463 -14.9133
ltibia 40.1875
lfoot -17.9659 2.19917
ltoes -40.5053
205
root 9.69608 15.8247 9.98138 -145.942 -2.58902 178.797
lowerback -19.802 -1.67322 -6.59673
upperback -3.03363 -1.30421 -0.982711
thorax 7.88046 -1.04747 2.31291
lowerneck -6.60983 8.17942 0.252292
upperneck 10.1394 5.19822 27.5676
head 3.37512 2.71079 8.88414
rclavicle -2.78299e-015 1.35174e-014
rhumerus -35.2 -5.52622 -85.2997
rradius 46.3081
rwrist -7.34267
rhand -7.36834 -51.6363
rfingers 7.12502
rthumb 18.5165 -440.775
lclavicle -2.78299e-015 1.35174e-014
lhumerus -32.3773 1.7273 80.1105
lradius 29.1512
lwrist -2.3364
lhand -21.1786 -12.4981
lfingers 7.12502
lthumb 5.20187 17.4181
rfemur -48.5215 5.5928 19.1326
rtibia 38.4242
rfoot -32.2101 -6.30115
rtoes -28.7282
lfemur -52.588 -10.3298 -15.0119
ltibia 42.0189
lfoot -18.3792 1.80853
ltoes -39.9265
206
root 9.70052 15.745 9.98932 -146.093 -2.73999 178.753
lowerback -19.3932 -1.58349 -6.62306
upperback -2.87601 -1.16715 -1.06522
thorax 7.82033 -0.968966 2.28137
lowerneck -6.60465 8.41403 0.855032
upperneck 10.2432 5.47363 27.2041
head 3.40493 2.86849 8.66344
rclavicle 2.78299e-015 -1.27222e-014
rhumerus -35.1304 -4.94586 -85.5278
rradius 46.8964
rwrist -7.33123
rhand -7.90995 -51.2262
rfingers 7.12502
rthumb 17.9955 -440.414
lclavicle 2.78299e-015 -1.27222e-014
lhumerus -32.2217 1.22752 80.237
lradius 29.3835
lwrist -2.08512
lhand -21.4345 -13.0184
lfingers 7.12502
lthumb 4.95479 16.9037
rfemur -49.2203 5.51155 19.2391
rtibia 40.1208
rfoot -32.9814 -6.84136
rtoes -29.9777
lfemur -53.4565 -10.1924 -15.1475
ltibia 43.8227
lfoot -18.7891 1.33833
ltoes -39.2033
207
root 9.70562 15.6606 10.0009 -146.127 -3.01311 178.674
lowerback -19.1039 -1.53834 -6.63228
upperback -2.72102 -1.08829 -1.1367
thorax 7.82647 -0.921643 2.23361
lowerneck -6.52973 8.69233 1.57175
upperneck 10.3513 5.81638 26.742
head 3.42565 3.05695 8.39069
rclavicle -1.47101e-014 -3.26007e-014
rhumerus -34.9628 -4.43173 -85.7581
rradius 47.4838
rwrist -7.26252
rhand -8.07489 -51.2197
rfingers 7.12502
rthumb 17.8368 -440.422
lclavicle -1.47101e-014 -3.26007e-014
lhumerus -32.0065 0.7976 80.3377
lradius 29.6881
lwrist -1.90536
lhand -21.5088 -12.9276
lfingers 7.12502
lthumb 4.88305 16.9962
rfemur -50.0891 5.29181 19.3779
rtibia 41.8962
rfoot -33.6415 -7.17343
rtoes -30.5704
lfemur -54.4929 -10.1173 -15.2577
ltibia 45.6582
lfoot -19.2066 0.639823
ltoes -37.973
208
root 9.71112 15.5708 10.0219 -146.065 -3.33842 178.547
lowerback -18.8201 -1.53204 -6.62956
upperback -2.6193 -1.07301 -1.24201
thorax 7.78119 -0.906111 2.12622
lowerneck -6.27796 9.02227 2.44259
upperneck 10.47 6.24736 26.1471
head 3.42255 3.27905 8.04503
rclavicle 9.14409e-015 4.05521e-014
rhumerus -34.8744 -3.93865 -86.0822
rradius 48.1876
rwrist -7.2235
rhand -7.86444 -51.5595
rfingers 7.12502
rthumb 18.0393 -440.743
lclavicle 9.14409e-015 4.05521e-014
lhumerus -31.8148 0.576049 80.3135
lradius 30.0143
lwrist -1.7595
lhand -21.4208 -12.3485
lfingers 7.12502
lthumb 4.96809 17.5733
rfemur -51.1406 4.85947 19.5587
rtibia 43.8424
rfoot -34.3353 -7.39511
rtoes -31.0945
lfemur -55.7412 -9.98634 -15.4475
ltibia 47.7317
lfoot -19.672 -0.26767
ltoes -36.673
209
root 9.7157 15.4772 10.0479 -145.971 -3.62902 178.399
lowerback -18.4936 -1.50223 -6.64796
upperback -2.52799 -1.02711 -1.36622
thorax 7.6981 -0.875819 2.01913
lowerneck -6.08192 9.35505 3.35001
upperneck 10.5567 6.68602 25.5253
head 3.42941 3.50758 7.6921
rclavicle 3.57812e-015 -7.95139e-016
rhumerus -34.6895 -3.49923 -86.4099
rradius 48.7668
rwrist -7.27656
rhand -7.45341 -51.6687
rfingers 7.12502
rthumb 18.4347 -440.815
lclavicle 3.57812e-015 -7.95139e-016
lhumerus -31.5135 0.462353 80.2626
lradius 30.2842
lwrist -1.57825
lhand -21.2997 -12.3993
lfingers 7.12502
lthumb 5.08501 17.5197
rfemur -52.243 4.33495 19.7573
rtibia 45.7712
rfoot -35.1116 -7.61992
rtoes -31.8287
lfemur -57.0695 -9.80818 -15.6938
ltibia 49.8805
lfoot -20.0141 -1.31077
ltoes -34.569
